HIERARCHY
ROOT hips
{
	OFFSET 0.000000 104.274902 0.000000
	CHANNELS 6 Xposition Yposition Zposition Xrotation Yrotation Zrotation
	JOINT spine
	{
		OFFSET 0.000000 10.181549 0.131524
		CHANNELS 6 Xposition Yposition Zposition Xrotation Yrotation Zrotation
		JOINT chest
		{
			OFFSET 0.000000 9.893990 -1.470706
			CHANNELS 3 Xrotation Yrotation Zrotation
			JOINT upperChest
			{
				OFFSET 0.000000 9.220787 -1.370637
				CHANNELS 3 Xrotation Yrotation Zrotation
				JOINT neck
				{
					OFFSET 0.000000 16.740372 -2.049022
					CHANNELS 6 Xposition Yposition Zposition Xrotation Yrotation Zrotation
					JOINT head
					{
						OFFSET 0.000000 9.617859 1.684976
						CHANNELS 6 Xposition Yposition Zposition Xrotation Yrotation Zrotation
						JOINT headEnd
						{
							OFFSET 0.000000 22.037384 7.501072
							CHANNELS 6 Xposition Yposition Zposition Xrotation Yrotation Zrotation
							End Site
							{
								OFFSET 0.000000 23.106567 -2.828246
							}
						}
					}
				}
				JOINT rightShoulder
				{
					OFFSET -4.570000 11.014877 -2.160840
					CHANNELS 6 Xposition Yposition Zposition Xrotation Yrotation Zrotation
					JOINT rightUpperArm
					{
						OFFSET -10.592867 -0.524796 -2.232105
						CHANNELS 3 Xrotation Yrotation Zrotation
						JOINT rightLowerArm
						{
							OFFSET -27.841497 0.000000 -0.000002
							CHANNELS 3 Xrotation Yrotation Zrotation
							JOINT rightHand
							{
								OFFSET -28.328812 0.000000 -0.000001
								CHANNELS 3 Xrotation Yrotation Zrotation
								JOINT rightThumbProximal
								{
									OFFSET -2.464798 -1.573990 2.681911
									CHANNELS 6 Xposition Yposition Zposition Xrotation Yrotation Zrotation
									JOINT rightThumbIntermediate
									{
										OFFSET -3.244781 -1.873383 1.873376
										CHANNELS 3 Xrotation Yrotation Zrotation
										JOINT rightThumbDistal
										{
											OFFSET -2.646263 -1.527817 1.527818
											CHANNELS 6 Xposition Yposition Zposition Xrotation Yrotation Zrotation
											JOINT rightHandThumb4
											{
												OFFSET -1.994591 -1.151581 1.151575
												CHANNELS 6 Xposition Yposition Zposition Xrotation Yrotation Zrotation
												End Site
												{
													OFFSET -1.860176 -1.142715 1.365483
												}
											}
										}
									}
								}
								JOINT rightIndexProximal
								{
									OFFSET -9.108299 -0.517883 2.259803
									CHANNELS 6 Xposition Yposition Zposition Xrotation Yrotation Zrotation
									JOINT rightIndexIntermediate
									{
										OFFSET -3.699997 0.000000 0.000000
										CHANNELS 3 Xrotation Yrotation Zrotation
										JOINT rightIndexDistal
										{
											OFFSET -2.850006 0.000000 0.000000
											CHANNELS 3 Xrotation Yrotation Zrotation
											JOINT rightHandIndex4
											{
												OFFSET -2.772194 0.000000 0.000000
												CHANNELS 3 Xrotation Yrotation Zrotation
												End Site
												{
													OFFSET -2.772202 0.000000 -0.000484
												}
											}
										}
									}
								}
								JOINT rightMiddleProximal
								{
									OFFSET -9.532501 0.000000 -0.000000
									CHANNELS 6 Xposition Yposition Zposition Xrotation Yrotation Zrotation
									JOINT rightMiddleIntermediate
									{
										OFFSET -3.699997 0.000000 0.000000
										CHANNELS 3 Xrotation Yrotation Zrotation
										JOINT rightMiddleDistal
										{
											OFFSET -2.949997 0.000000 0.000000
											CHANNELS 3 Xrotation Yrotation Zrotation
											JOINT rightHandMiddle4
											{
												OFFSET -2.946594 0.000000 0.000000
												CHANNELS 3 Xrotation Yrotation Zrotation
												End Site
												{
													OFFSET -2.946602 0.000000 -0.000982
												}
											}
										}
									}
								}
								JOINT rightRingProximal
								{
									OFFSET -9.103600 -0.043106 -1.865100
									CHANNELS 6 Xposition Yposition Zposition Xrotation Yrotation Zrotation
									JOINT rightRingIntermediate
									{
										OFFSET -3.379303 0.000000 0.000000
										CHANNELS 3 Xrotation Yrotation Zrotation
										JOINT rightRingDistal
										{
											OFFSET -2.889694 0.000000 0.000000
											CHANNELS 3 Xrotation Yrotation Zrotation
											JOINT rightHandRing4
											{
												OFFSET -2.638802 0.000000 0.000000
												CHANNELS 3 Xrotation Yrotation Zrotation
												End Site
												{
													OFFSET -2.638802 0.000000 0.004218
												}
											}
										}
									}
								}
								JOINT rightLittleProximal
								{
									OFFSET -8.076698 -0.486725 -3.806299
									CHANNELS 6 Xposition Yposition Zposition Xrotation Yrotation Zrotation
									JOINT rightLittleIntermediate
									{
										OFFSET -3.600006 0.000000 0.000000
										CHANNELS 3 Xrotation Yrotation Zrotation
										JOINT rightLittleDistal
										{
											OFFSET -2.099998 0.000000 0.000000
											CHANNELS 3 Xrotation Yrotation Zrotation
											JOINT rightHandPinky4
											{
												OFFSET -2.115791 0.000000 0.000000
												CHANNELS 3 Xrotation Yrotation Zrotation
												End Site
												{
													OFFSET -2.115799 0.000000 0.000174
												}
											}
										}
									}
								}
							}
						}
					}
				}
				JOINT leftShoulder
				{
					OFFSET 4.570400 11.014679 -2.160816
					CHANNELS 6 Xposition Yposition Zposition Xrotation Yrotation Zrotation
					JOINT leftUpperArm
					{
						OFFSET 10.592373 -0.524597 -2.232116
						CHANNELS 3 Xrotation Yrotation Zrotation
						JOINT leftLowerArm
						{
							OFFSET 27.841488 0.000000 0.000001
							CHANNELS 3 Xrotation Yrotation Zrotation
							JOINT leftHand
							{
								OFFSET 28.328808 0.000000 -0.000000
								CHANNELS 3 Xrotation Yrotation Zrotation
								JOINT leftThumbProximal
								{
									OFFSET 2.466103 -1.576202 2.681698
									CHANNELS 6 Xposition Yposition Zposition Xrotation Yrotation Zrotation
									JOINT leftThumbIntermediate
									{
										OFFSET 3.243317 -1.872528 1.872530
										CHANNELS 3 Xrotation Yrotation Zrotation
										JOINT leftThumbDistal
										{
											OFFSET 2.647881 -1.528763 1.528754
											CHANNELS 6 Xposition Yposition Zposition Xrotation Yrotation Zrotation
											JOINT leftHandThumb4
											{
												OFFSET 1.998924 -1.154083 1.154080
												CHANNELS 6 Xposition Yposition Zposition Xrotation Yrotation Zrotation
												End Site
												{
													OFFSET 1.884041 -1.149155 1.337651
												}
											}
										}
									}
								}
								JOINT leftIndexProximal
								{
									OFFSET 9.109299 -0.518005 2.259900
									CHANNELS 6 Xposition Yposition Zposition Xrotation Yrotation Zrotation
									JOINT leftIndexIntermediate
									{
										OFFSET 3.699997 0.000000 0.000000
										CHANNELS 3 Xrotation Yrotation Zrotation
										JOINT leftIndexDistal
										{
											OFFSET 2.850006 0.000000 0.000000
											CHANNELS 3 Xrotation Yrotation Zrotation
											JOINT leftHandIndex4
											{
												OFFSET 2.774895 0.000000 0.000000
												CHANNELS 3 Xrotation Yrotation Zrotation
												End Site
												{
													OFFSET 2.774902 0.000000 -0.000072
												}
											}
										}
									}
								}
								JOINT leftMiddleProximal
								{
									OFFSET 9.533401 0.000000 0.000000
									CHANNELS 6 Xposition Yposition Zposition Xrotation Yrotation Zrotation
									JOINT leftMiddleIntermediate
									{
										OFFSET 3.699997 0.000000 0.000000
										CHANNELS 3 Xrotation Yrotation Zrotation
										JOINT leftMiddleDistal
										{
											OFFSET 2.949997 0.000000 0.000000
											CHANNELS 3 Xrotation Yrotation Zrotation
											JOINT leftHandMiddle4
											{
												OFFSET 2.952896 0.000000 0.000000
												CHANNELS 3 Xrotation Yrotation Zrotation
												End Site
												{
													OFFSET 2.952904 0.000000 0.000165
												}
											}
										}
									}
								}
								JOINT leftRingProximal
								{
									OFFSET 9.104500 -0.042999 -1.865101
									CHANNELS 6 Xposition Yposition Zposition Xrotation Yrotation Zrotation
									JOINT leftRingIntermediate
									{
										OFFSET 3.149994 0.000000 0.000000
										CHANNELS 3 Xrotation Yrotation Zrotation
										JOINT leftRingDistal
										{
											OFFSET 2.950005 0.000000 0.000000
											CHANNELS 3 Xrotation Yrotation Zrotation
											JOINT leftHandRing4
											{
												OFFSET 2.644302 0.000000 0.000000
												CHANNELS 3 Xrotation Yrotation Zrotation
												End Site
												{
													OFFSET 2.644302 0.000000 0.000083
												}
											}
										}
									}
								}
								JOINT leftLittleProximal
								{
									OFFSET 8.077805 -0.486893 -3.806302
									CHANNELS 6 Xposition Yposition Zposition Xrotation Yrotation Zrotation
									JOINT leftLittleIntermediate
									{
										OFFSET 3.600006 0.000000 0.000000
										CHANNELS 3 Xrotation Yrotation Zrotation
										JOINT leftLittleDistal
										{
											OFFSET 2.099998 0.000000 0.000000
											CHANNELS 3 Xrotation Yrotation Zrotation
											JOINT leftHandPinky4
											{
												OFFSET 2.125496 0.000000 0.000000
												CHANNELS 3 Xrotation Yrotation Zrotation
												End Site
												{
													OFFSET 2.125504 0.000000 -0.001254
												}
											}
										}
									}
								}
							}
						}
					}
				}
			}
		}
	}
	JOINT rightUpperLeg
	{
		OFFSET -8.207800 -6.751701 -1.599544
		CHANNELS 6 Xposition Yposition Zposition Xrotation Yrotation Zrotation
		JOINT rightLowerLeg
		{
			OFFSET 0.000004 -44.370152 0.345934
			CHANNELS 3 Xrotation Yrotation Zrotation
			JOINT rightFoot
			{
				OFFSET 0.000004 -44.423664 -3.043535
				CHANNELS 3 Xrotation Yrotation Zrotation
				JOINT rightToes
				{
					OFFSET 0.000001 -8.728691 10.710592
					CHANNELS 3 Xrotation Yrotation Zrotation
					JOINT rightToesEnd
					{
						OFFSET 0.000000 -0.000665 9.278101
						CHANNELS 3 Xrotation Yrotation Zrotation
						End Site
						{
							OFFSET 0.000000 -0.000665 9.278103
						}
					}
				}
			}
		}
	}
	JOINT leftUpperLeg
	{
		OFFSET 8.207800 -6.751701 -1.599544
		CHANNELS 6 Xposition Yposition Zposition Xrotation Yrotation Zrotation
		JOINT leftLowerLeg
		{
			OFFSET 0.000004 -44.370037 0.346940
			CHANNELS 3 Xrotation Yrotation Zrotation
			JOINT leftFoot
			{
				OFFSET 0.000004 -44.423611 -3.044388
				CHANNELS 3 Xrotation Yrotation Zrotation
				JOINT leftToes
				{
					OFFSET 0.000001 -8.728690 10.710592
					CHANNELS 3 Xrotation Yrotation Zrotation
					JOINT leftToesEnd
					{
						OFFSET 0.000000 -0.000680 9.278101
						CHANNELS 3 Xrotation Yrotation Zrotation
						End Site
						{
							OFFSET 0.000000 -0.000680 9.278101
						}
					}
				}
			}
		}
	}
}
MOTION
Frames: 4
Frame Time: 0.033333
-0.379158 80.899796 2.295387 44.853142 3.887525 -4.716566 -0.000000 10.181550 0.131523 20.480976 0.213896 1.074338 7.515686 -0.660771 -0.296182 15.448088 -1.039466 0.047979 -0.000001 16.740391 -2.049008 -28.133423 -2.131726 5.520332 -0.000000 9.617862 1.684980 -47.793695 0.030235 -0.115468 0.000000 22.037369 7.501076 0.000000 -0.000000 -0.000000 -4.570001 11.014877 -2.160835 3.008926 -7.227043 -1.559874 10.259117 25.512640 60.374255 -1.049101 30.006401 14.557056 2.774402 -13.936223 23.371056 -2.464802 -1.573992 2.681904 57.942865 -3.450511 -30.455557 8.439448 -21.133712 -3.688516 -2.646267 -1.527799 1.527816 -0.238908 0.552087 0.141040 -1.994597 -1.151598 1.151577 -0.000000 -0.000003 -0.000000 -9.108294 -0.517878 2.259803 0.393676 8.707065 -8.736269 -0.000002 0.002707 0.000008 -0.054921 -1.851892 -14.650054 0.000001 0.000001 0.000001 -9.532496 0.000008 0.000005 -0.914470 3.277491 -3.618995 -0.004076 0.016218 22.775028 -0.001499 0.008926 12.945370 -0.000006 0.000001 0.000001 -9.103593 -0.043092 -1.865102 -0.887588 3.552617 17.232861 -0.003967 0.018104 25.851807 -0.210580 -0.019487 21.017517 -0.000002 0.000003 0.000002 -8.076688 -0.486725 -3.806298 -13.764941 2.319782 33.828472 -0.002164 0.016141 20.687151 0.414178 0.067100 15.508368 0.000000 0.000001 -0.000001 4.570400 11.014695 -2.160805 2.287927 11.409605 9.027328 15.936863 -37.828060 -55.221506 -19.039144 -25.397171 -17.479429 0.318693 2.391463 -22.331500 2.466095 -1.576199 2.681678 57.941902 3.450306 30.457412 8.441281 21.134137 3.687120 2.647900 -1.528756 1.528748 -0.237360 -0.552839 -0.144415 1.998910 -1.154083 1.154070 0.000002 0.000003 -0.000000 9.109307 -0.518011 2.259896 0.393664 -8.706387 8.742854 -0.000030 -0.002460 -0.000990 -0.054464 1.849251 14.650153 -0.000002 -0.000000 0.000001 9.533413 0.000012 -0.000004 -0.914595 -3.276689 3.615588 -0.003280 -0.014837 -22.772505 -0.000966 -0.008764 -12.942790 -0.000001 0.000002 0.000001 9.104515 -0.042990 -1.865102 -0.887772 -3.553130 -17.231200 -0.004307 -0.018048 -25.852993 -0.007878 0.562201 -19.986368 0.000001 -0.000003 -0.000001 8.077809 -0.486895 -3.806305 -13.766375 -2.321789 -33.828213 -0.002509 -0.014549 -20.678784 -0.005138 -1.563851 -15.766197 -0.000001 0.000001 0.000001 -8.207798 -6.751698 -1.599541 -65.232377 -4.313577 7.340718 73.332374 -16.886579 7.815650 -37.395279 1.728243 -4.830315 -14.998971 1.746326 0.843354 -0.000000 0.000000 0.000000 8.207800 -6.751704 -1.599554 -80.728963 -13.701725 -5.577400 103.371184 10.159626 2.640726 -5.061846 0.633810 -3.498605 -4.050940 -6.721500 6.191032 -0.000004 0.000001 0.000001 
-0.332152 81.667870 16.583973 44.474312 3.900464 -3.090656 0.000000 10.181553 0.131519 19.452519 0.843650 -1.514914 6.592638 0.031555 -1.539548 14.537475 -0.384656 -1.273918 0.000001 16.740377 -2.049008 -25.431808 -4.202232 6.856560 0.000000 9.617844 1.684979 -47.157532 -2.295374 0.373531 0.000000 22.037384 7.501066 0.000001 -0.000000 -0.000000 -4.570002 11.014884 -2.160842 3.004865 -7.322261 -1.582522 12.216709 24.354667 60.584884 -2.695504 33.554346 14.284784 2.191900 -14.440444 21.549249 -2.464798 -1.573991 2.681904 57.942865 -3.450508 -30.455554 8.439449 -21.133717 -3.688517 -2.646276 -1.527789 1.527816 -0.238906 0.552086 0.141044 -1.994598 -1.151585 1.151577 0.000001 -0.000002 0.000003 -9.108294 -0.517863 2.259808 0.393681 8.707064 -8.736268 -0.000003 0.002707 0.000008 -0.054917 -1.851892 -14.650051 -0.000002 -0.000004 0.000002 -9.532497 0.000022 0.000008 -0.914467 3.277492 -3.618995 -0.004080 0.016219 22.775030 -0.001497 0.008927 12.945372 0.000001 -0.000001 -0.000000 -9.103597 -0.043109 -1.865103 -0.887588 3.552617 17.232863 -0.003972 0.018105 25.851808 -0.210583 -0.019489 21.017511 0.000001 -0.000001 -0.000001 -8.076688 -0.486725 -3.806302 -13.764937 2.319782 33.828472 -0.002165 0.016141 20.687152 0.414176 0.067100 15.508368 0.000001 0.000000 0.000001 4.570397 11.014687 -2.160818 2.163621 11.312522 9.559692 19.051525 -36.285390 -55.044348 -16.925813 -26.120653 -17.404347 0.296272 3.560600 -22.715404 2.466095 -1.576206 2.681685 57.941902 3.450302 30.457415 8.441281 21.134134 3.687126 2.647882 -1.528764 1.528751 -0.237355 -0.552834 -0.144411 1.998916 -1.154074 1.154077 0.000002 -0.000001 0.000003 9.109306 -0.518011 2.259894 0.393665 -8.706386 8.742856 -0.000029 -0.002463 -0.000990 -0.054462 1.849250 14.650151 -0.000001 -0.000001 0.000001 9.533406 0.000012 0.000001 -0.914593 -3.276687 3.615587 -0.003279 -0.014842 -22.772506 -0.000962 -0.008764 -12.942787 0.000003 -0.000000 -0.000002 9.104504 -0.042996 -1.865108 -0.887772 -3.553131 -17.231200 -0.004309 -0.018050 -25.852993 -0.007878 0.562201 -19.986370 -0.000001 -0.000001 -0.000001 8.077809 -0.486895 -3.806310 -13.766373 -2.321790 -33.828213 -0.002509 -0.014550 -20.678785 -0.005137 -1.563852 -15.766199 0.000000 -0.000000 0.000000 -8.207799 -6.751718 -1.599552 -50.621032 -3.706780 8.152067 63.895764 -20.964052 6.313430 -35.133100 1.145686 -4.155569 -22.893513 4.432824 4.431151 -0.000000 0.000001 -0.000001 8.207802 -6.751711 -1.599553 -99.988546 -9.968631 -5.485224 97.551214 8.320092 2.316881 -1.822710 0.955936 -2.060314 -1.995702 -5.735085 6.077766 -0.000004 0.000001 0.000000 
-0.419580 82.535767 31.864807 44.223692 4.951996 -1.944361 0.000000 10.181552 0.131519 17.628588 1.643112 -4.124892 5.021545 0.508617 -2.509026 12.970580 0.002322 -2.309211 -0.000000 16.740372 -2.049010 -19.876383 -6.129438 8.983138 -0.000000 9.617839 1.684993 -46.589437 -4.150353 0.471365 -0.000000 22.037369 7.501073 -0.000000 -0.000000 0.000000 -4.570002 11.014869 -2.160835 3.106903 -7.474101 -0.977844 14.466351 21.509925 62.182090 -1.587844 36.192312 13.484805 2.055952 -15.464452 21.380427 -2.464802 -1.573992 2.681915 57.942872 -3.450509 -30.455557 8.439447 -21.133713 -3.688519 -2.646271 -1.527788 1.527814 -0.238907 0.552087 0.141042 -1.994621 -1.151585 1.151572 0.000003 -0.000004 0.000003 -9.108294 -0.517890 2.259798 0.393678 8.707063 -8.736267 -0.000007 0.002707 0.000008 -0.054919 -1.851894 -14.650054 0.000002 0.000001 0.000002 -9.532496 0.000008 -0.000002 -0.914466 3.277492 -3.618995 -0.004077 0.016217 22.775032 -0.001497 0.008928 12.945374 -0.000000 0.000001 0.000001 -9.103604 -0.043109 -1.865108 -0.887587 3.552616 17.232859 -0.003969 0.018104 25.851800 -0.210579 -0.019484 21.017515 0.000002 0.000004 0.000005 -8.076695 -0.486717 -3.806306 -13.764937 2.319782 33.828472 -0.002162 0.016142 20.687156 0.414179 0.067101 15.508366 0.000000 -0.000001 -0.000000 4.570400 11.014693 -2.160810 2.104862 10.883190 9.822462 23.806659 -34.216065 -53.241144 -14.855506 -27.670746 -17.192344 0.251630 4.957861 -23.016332 2.466099 -1.576200 2.681699 57.941902 3.450307 30.457412 8.441279 21.134139 3.687121 2.647889 -1.528755 1.528753 -0.237357 -0.552834 -0.144414 1.998929 -1.154093 1.154076 0.000000 0.000000 0.000001 9.109298 -0.518012 2.259898 0.393665 -8.706388 8.742853 -0.000030 -0.002462 -0.000988 -0.054463 1.849251 14.650156 -0.000001 0.000003 -0.000000 9.533389 0.000011 -0.000002 -0.914593 -3.276687 3.615587 -0.003281 -0.014839 -22.772501 -0.000963 -0.008762 -12.942786 0.000000 0.000003 0.000001 9.104507 -0.042990 -1.865103 -0.887769 -3.553130 -17.231201 -0.004307 -0.018049 -25.852995 -0.007879 0.562202 -19.986366 0.000002 -0.000001 -0.000000 8.077809 -0.486895 -3.806293 -13.766374 -2.321790 -33.828213 -0.002507 -0.014549 -20.678784 -0.005136 -1.563853 -15.766197 0.000001 0.000000 -0.000000 -8.207800 -6.751714 -1.599545 -37.439293 -2.206066 8.242254 52.110973 -20.492499 4.338439 -17.289464 -0.445955 -4.469453 -41.652973 2.767458 4.728518 -0.000000 0.000000 -0.000000 8.207801 -6.751697 -1.599558 -111.139015 -4.662355 -4.162547 82.980959 6.632763 0.252380 6.163541 1.010606 -1.016329 -0.473918 -2.594464 3.205789 0.000000 -0.000000 -0.000000 
-0.394896 82.907043 48.185139 43.900730 6.382266 -2.521141 -0.000002 10.181567 0.131521 15.699687 2.701939 -5.175878 3.227901 0.622414 -2.680198 11.175637 0.061192 -2.510962 0.000002 16.740376 -2.049019 -13.367966 -7.279200 11.010605 -0.000000 9.617830 1.684995 -45.926858 -4.895648 0.062304 0.000001 22.037354 7.501082 0.000000 -0.000000 -0.000000 -4.570003 11.014888 -2.160841 3.272937 -7.741159 -0.027484 16.514035 17.995040 63.836061 1.305647 38.016799 12.106491 2.229768 -16.636065 22.201870 -2.464802 -1.573995 2.681881 57.942872 -3.450510 -30.455557 8.439449 -21.133715 -3.688519 -2.646269 -1.527809 1.527822 -0.238908 0.552086 0.141044 -1.994591 -1.151582 1.151574 0.000000 -0.000000 0.000006 -9.108294 -0.517878 2.259793 0.393677 8.707062 -8.736267 -0.000001 0.002707 0.000007 -0.054916 -1.851891 -14.650052 -0.000000 -0.000002 -0.000001 -9.532498 -0.000009 -0.000011 -0.914470 3.277492 -3.618994 -0.004077 0.016217 22.775032 -0.001500 0.008926 12.945372 -0.000000 0.000001 0.000001 -9.103593 -0.043110 -1.865101 -0.887586 3.552617 17.232861 -0.003969 0.018104 25.851805 -0.210579 -0.019485 21.017520 0.000001 0.000002 0.000005 -8.076680 -0.486717 -3.806304 -13.764939 2.319782 33.828469 -0.002159 0.016142 20.687154 0.414174 0.067101 15.508365 0.000001 -0.000000 -0.000001 4.570397 11.014701 -2.160820 2.170930 10.285543 9.544000 28.214384 -32.042890 -51.833182 -12.840750 -29.361525 -16.745044 0.269490 6.317925 -23.566767 2.466103 -1.576230 2.681697 57.941895 3.450306 30.457419 8.441283 21.134139 3.687126 2.647878 -1.528756 1.528753 -0.237357 -0.552833 -0.144412 1.998921 -1.154079 1.154079 -0.000000 0.000001 0.000001 9.109315 -0.518010 2.259905 0.393666 -8.706388 8.742856 -0.000030 -0.002463 -0.000991 -0.054465 1.849253 14.650153 0.000001 0.000000 0.000000 9.533398 -0.000000 0.000006 -0.914592 -3.276687 3.615590 -0.003279 -0.014842 -22.772505 -0.000964 -0.008765 -12.942788 0.000000 0.000001 0.000000 9.104506 -0.043011 -1.865094 -0.887769 -3.553129 -17.231196 -0.004307 -0.018047 -25.852992 -0.007876 0.562201 -19.986366 -0.000000 -0.000004 -0.000000 8.077809 -0.486891 -3.806293 -13.766372 -2.321788 -33.828213 -0.002510 -0.014549 -20.678787 -0.005138 -1.563853 -15.766197 -0.000000 -0.000000 -0.000000 -8.207797 -6.751712 -1.599538 -22.316543 -0.056328 9.530952 34.271362 -16.000618 2.398438 11.280502 -2.730744 -3.261609 -49.124899 2.471003 1.530819 0.000001 -0.000000 -0.000000 8.207800 -6.751691 -1.599559 -112.634717 0.661768 -3.152018 66.875045 4.352587 -2.404020 14.598559 0.856968 0.582346 -0.906077 -1.765200 2.161297 -0.000001 -0.000000 -0.000000 
